<svg width="16" height="19" viewBox="0 0 16 19" fill="none" xmlns="http://www.w3.org/2000/svg">
<path d="M13.3151 2.7036H11.074V2.61811C11.0732 1.92396 10.7901 1.25845 10.2868 0.767608C9.7834 0.27677 9.1009 0.000707233 8.38904 0L7.6137 0C6.90231 0.00141389 6.22051 0.277789 5.71773 0.76855C5.21496 1.25931 4.93223 1.92442 4.93151 2.61811V2.70093H2.68493C1.4137 2.70093 0 3.88709 0 5.58619V6.33957C0 6.5167 0.0721622 6.68658 0.200612 6.81183C0.329061 6.93709 0.503276 7.00745 0.684931 7.00745H1.39726L2.17808 18.3775C2.18987 18.5462 2.26683 18.7043 2.39344 18.8198C2.52005 18.9353 2.68688 18.9997 2.86027 19H13.1507C13.3241 18.9997 13.4909 18.9353 13.6175 18.8198C13.7441 18.7043 13.8211 18.5462 13.8329 18.3775L14.6027 7.01012H15.3151C15.4967 7.01012 15.6709 6.93976 15.7994 6.8145C15.9278 6.68925 16 6.51937 16 6.34224V5.58886C16.0027 3.88709 14.5863 2.7036 13.3151 2.7036ZM6.30137 2.61811C6.30209 2.27869 6.4405 1.95333 6.68637 1.71308C6.93225 1.47282 7.26562 1.33718 7.6137 1.33577H8.38904C8.73759 1.33648 9.07167 1.47181 9.31813 1.71214C9.5646 1.95247 9.70338 2.27823 9.70411 2.61811V2.70093H6.30137V2.61811ZM1.36986 5.58886C1.36986 4.88625 1.95616 4.03937 2.68493 4.03937H13.3151C14.0438 4.03937 14.6301 4.88625 14.6301 5.58886V5.67435H1.36986V5.58886ZM12.5014 17.6642H3.50137L2.76986 7.01012H13.2301L12.5014 17.6642Z" fill="white"/>
</svg>
